<mxfile host="app.diagrams.net" modified="2022-08-20T20:53:09.598Z" agent="5.0 (Windows)" etag="-Vp7pG8xVyk2yr2wqfUh" version="20.2.5" type="github">
  <diagram id="rOnu4m4wpNYvQQLBcM4Z" name="Pagina-1">
    <mxGraphModel dx="1422" dy="752" grid="1" gridSize="10" guides="1" tooltips="1" connect="1" arrows="1" fold="1" page="1" pageScale="1" pageWidth="1169" pageHeight="827" math="0" shadow="0">
      <root>
        <mxCell id="0" />
        <mxCell id="1" parent="0" />
        <mxCell id="ty9AIXr6qEYBbn31aFN4-2" value="" style="endArrow=none;dashed=1;html=1;rounded=0;startArrow=none;" parent="1" edge="1">
          <mxGeometry width="50" height="50" relative="1" as="geometry">
            <mxPoint x="580" y="500" as="sourcePoint" />
            <mxPoint x="580" as="targetPoint" />
          </mxGeometry>
        </mxCell>
        <mxCell id="msFj-xzoxHvCmX-C848p-1" value="&lt;div&gt;&lt;font style=&quot;font-size: 10px;&quot;&gt;♀ &lt;b&gt;Amrita Soenaina&lt;br&gt;&lt;/b&gt;&lt;/font&gt;&lt;/div&gt;&lt;div&gt;&lt;font style=&quot;font-size: 10px;&quot; size=&quot;3&quot;&gt;(04/08/1987)&lt;/font&gt;&lt;font size=&quot;3&quot;&gt;&lt;i&gt;&lt;br&gt;&lt;/i&gt;&lt;/font&gt;&lt;/div&gt;" style="rounded=1;whiteSpace=wrap;html=1;fillColor=#FFC0CB;strokeColor=#FF1493;fillStyle=auto;fontFamily=Verdana;fontSize=10;fontColor=#000000;" vertex="1" parent="1">
          <mxGeometry x="489.90000000000003" y="729" width="84.69" height="80" as="geometry" />
        </mxCell>
        <mxCell id="msFj-xzoxHvCmX-C848p-3" value="&lt;div&gt;&lt;font style=&quot;font-size: 10px;&quot;&gt;♀ &lt;b&gt;Sandra Gaitrie Kathusing&lt;br&gt;&lt;/b&gt;&lt;/font&gt;&lt;/div&gt;&lt;div&gt;&lt;font style=&quot;font-size: 10px;&quot; size=&quot;3&quot;&gt;(07/02/1965)&lt;/font&gt;&lt;font size=&quot;3&quot;&gt;&lt;i&gt;&lt;br&gt;&lt;/i&gt;&lt;/font&gt;&lt;/div&gt;" style="rounded=1;whiteSpace=wrap;html=1;fillColor=#FFC0CB;strokeColor=#FF1493;fillStyle=auto;fontFamily=Verdana;fontSize=10;fontColor=#000000;" vertex="1" parent="1">
          <mxGeometry x="508.5" y="644" width="84.69" height="80" as="geometry" />
        </mxCell>
        <mxCell id="msFj-xzoxHvCmX-C848p-4" value="&lt;div&gt;&lt;font style=&quot;font-size: 10px;&quot; face=&quot;Verdana&quot;&gt;♂ &lt;b&gt;Bhagwan-persad Ramsaransing&lt;/b&gt;&lt;br&gt;&lt;/font&gt;&lt;/div&gt;&lt;div&gt;&lt;font style=&quot;font-size: 10px;&quot; face=&quot;Verdana&quot;&gt;(20/03/1960 -&amp;nbsp; &lt;/font&gt;&lt;font style=&quot;font-size: 10px;&quot; face=&quot;Verdana&quot;&gt;&lt;font style=&quot;font-size: 10px;&quot; size=&quot;3&quot;&gt;&lt;b&gt;†&lt;/b&gt;24/10/2008&lt;/font&gt;)&lt;/font&gt;&lt;/div&gt;" style="rounded=1;whiteSpace=wrap;html=1;fillStyle=auto;strokeColor=#00BFFF;fillColor=#87CEFA;gradientColor=none;fontFamily=Verdana;fontSize=10;fontColor=#000000;" vertex="1" parent="1">
          <mxGeometry x="478" y="561" width="85" height="80" as="geometry" />
        </mxCell>
        <UserObject label="&lt;font style=&quot;font-size: 8px;&quot;&gt;&lt;span lang=&quot;EN-US&quot;&gt;⚭ 10/09/1983 &lt;/span&gt;&lt;span lang=&quot;EN-US&quot;&gt;➝ &lt;/span&gt;&lt;span lang=&quot;EN-US&quot;&gt;&lt;span lang=&quot;EN-US&quot;&gt;⚮ 1996&lt;br&gt;&lt;/span&gt;&lt;/span&gt;&lt;/font&gt;" placeholders="1" name="Variable" id="msFj-xzoxHvCmX-C848p-5">
          <mxCell style="text;html=1;strokeColor=none;fillColor=none;align=center;verticalAlign=middle;whiteSpace=wrap;overflow=hidden;fillStyle=auto;fontFamily=Verdana;fontSize=10;opacity=50;fontColor=#000000;rotation=-90;" vertex="1" parent="1">
            <mxGeometry x="426.34" y="659.5" width="79.16" height="33" as="geometry" />
          </mxCell>
        </UserObject>
        <mxCell id="msFj-xzoxHvCmX-C848p-6" value="&lt;div&gt;&lt;font style=&quot;font-size: 10px;&quot;&gt;♀&amp;nbsp; &lt;b&gt;Emmy Sabitrie&lt;br&gt;&lt;/b&gt;&lt;/font&gt;&lt;/div&gt;&lt;div&gt;&lt;font style=&quot;font-size: 10px;&quot; size=&quot;3&quot;&gt;(29/09/1956)&lt;/font&gt;&lt;font size=&quot;3&quot;&gt;&lt;i&gt;&lt;br&gt;&lt;/i&gt;&lt;/font&gt;&lt;/div&gt;" style="rounded=1;whiteSpace=wrap;html=1;fillColor=#FFC0CB;strokeColor=#FF1493;fillStyle=auto;fontFamily=Verdana;fontSize=10;fontColor=#000000;" vertex="1" parent="1">
          <mxGeometry x="118.65999999999994" y="561" width="84.69" height="80" as="geometry" />
        </mxCell>
        <mxCell id="msFj-xzoxHvCmX-C848p-9" value="&lt;div style=&quot;font-size: 12px;&quot; align=&quot;left&quot;&gt;&lt;font style=&quot;font-size: 12px;&quot; face=&quot;Verdana&quot;&gt;&lt;b&gt;†&lt;span style=&quot;&quot;&gt; &lt;/span&gt;&lt;/b&gt;&lt;/font&gt;&lt;font style=&quot;font-size: 12px;&quot;&gt;&lt;span style=&quot;&quot;&gt; &lt;/span&gt;&lt;span style=&quot;white-space: pre;&quot;&gt; &lt;/span&gt;Overleden&lt;/font&gt;&lt;/div&gt;&lt;div style=&quot;font-size: 12px;&quot; align=&quot;left&quot;&gt;&lt;font style=&quot;font-size: 12px;&quot;&gt;&lt;span lang=&quot;EN-US&quot;&gt;⚭&lt;span style=&quot;&quot;&gt; &lt;/span&gt;&lt;/span&gt;&lt;span style=&quot;white-space: pre;&quot;&gt; &lt;/span&gt;Gehuwd&lt;/font&gt;&lt;/div&gt;&lt;div style=&quot;font-size: 12px;&quot; align=&quot;left&quot;&gt;&lt;font style=&quot;font-size: 12px;&quot;&gt;&lt;font style=&quot;font-size: 12px;&quot;&gt;&lt;span lang=&quot;EN-US&quot;&gt;&lt;span lang=&quot;EN-US&quot;&gt;⚮ &lt;/span&gt;&lt;/span&gt;&lt;/font&gt;&lt;span style=&quot;white-space: pre;&quot;&gt; &lt;/span&gt;Gescheiden&lt;br&gt;&lt;/font&gt;&lt;/div&gt;" style="text;html=1;strokeColor=none;fillColor=none;align=left;verticalAlign=middle;whiteSpace=wrap;rounded=0;fillStyle=auto;fontFamily=Verdana;fontSize=8;fontColor=#000000;" vertex="1" parent="1">
          <mxGeometry x="3.01" y="6" width="110.64" height="60" as="geometry" />
        </mxCell>
        <mxCell id="msFj-xzoxHvCmX-C848p-10" value="&lt;div align=&quot;center&quot;&gt;&lt;br&gt;&lt;/div&gt;" style="shape=umlActor;verticalLabelPosition=bottom;verticalAlign=top;html=1;outlineConnect=0;fillStyle=auto;fontFamily=Verdana;fontSize=10;fontColor=#000000;strokeColor=#00BFFF;strokeWidth=2;fillColor=#87CEFA;gradientColor=none;align=center;" vertex="1" parent="1">
          <mxGeometry x="969.66" y="672" width="14.69" height="20" as="geometry" />
        </mxCell>
        <mxCell id="msFj-xzoxHvCmX-C848p-12" value="" style="shape=umlActor;verticalLabelPosition=bottom;verticalAlign=top;html=1;outlineConnect=0;fillStyle=auto;fontFamily=Verdana;fontSize=10;fontColor=#000000;strokeColor=#FF1493;strokeWidth=2;fillColor=#FFC0CB;gradientColor=none;" vertex="1" parent="1">
          <mxGeometry x="880.63" y="672.5" width="15.01" height="20" as="geometry" />
        </mxCell>
        <mxCell id="msFj-xzoxHvCmX-C848p-13" value="" style="strokeWidth=2;html=1;shape=mxgraph.flowchart.annotation_2;align=left;labelPosition=right;pointerEvents=1;fillStyle=auto;fontFamily=Verdana;fontSize=10;fillColor=#87CEFA;gradientColor=none;rotation=-90;" vertex="1" parent="1">
          <mxGeometry x="571.72" y="400.72" width="19.52" height="259.15" as="geometry" />
        </mxCell>
        <mxCell id="msFj-xzoxHvCmX-C848p-14" value="" style="line;strokeWidth=2;direction=south;html=1;fillStyle=auto;fontFamily=Verdana;fontSize=10;fillColor=#87CEFA;gradientColor=none;fontColor=#000000;" vertex="1" parent="1">
          <mxGeometry x="35.999999999999986" y="540" width="10" height="21" as="geometry" />
        </mxCell>
        <mxCell id="msFj-xzoxHvCmX-C848p-17" value="" style="line;strokeWidth=2;html=1;fillStyle=auto;fontFamily=Verdana;fontSize=10;fillColor=#87CEFA;gradientColor=none;" vertex="1" parent="1">
          <mxGeometry x="41" y="539" width="1080" height="4" as="geometry" />
        </mxCell>
        <mxCell id="msFj-xzoxHvCmX-C848p-18" value="&lt;div&gt;&lt;font style=&quot;font-size: 10px;&quot; face=&quot;Verdana&quot;&gt;♂ &lt;b&gt;Jasodanand Panday&lt;/b&gt;&lt;br&gt;&lt;/font&gt;&lt;/div&gt;&lt;div&gt;&lt;font style=&quot;font-size: 10px;&quot; face=&quot;Verdana&quot;&gt;(27/08/1955&lt;/font&gt;&lt;font style=&quot;font-size: 10px;&quot; face=&quot;Verdana&quot;&gt;)&lt;/font&gt;&lt;/div&gt;" style="rounded=1;whiteSpace=wrap;html=1;fillStyle=auto;strokeColor=#00BFFF;fillColor=#87CEFA;gradientColor=none;fontFamily=Verdana;fontSize=10;fontColor=#000000;" vertex="1" parent="1">
          <mxGeometry x="0.9999999999999911" y="560" width="85" height="80" as="geometry" />
        </mxCell>
        <mxCell id="msFj-xzoxHvCmX-C848p-19" value="" style="line;strokeWidth=2;direction=south;html=1;fillStyle=auto;fontFamily=Verdana;fontSize=10;fillColor=#87CEFA;gradientColor=none;fontColor=#000000;" vertex="1" parent="1">
          <mxGeometry x="1117" y="540" width="10" height="21" as="geometry" />
        </mxCell>
        <mxCell id="msFj-xzoxHvCmX-C848p-20" value="" style="line;strokeWidth=2;direction=south;html=1;fillStyle=auto;fontFamily=Verdana;fontSize=10;fillColor=#87CEFA;gradientColor=none;fontColor=#000000;" vertex="1" parent="1">
          <mxGeometry x="156" y="540" width="10" height="21" as="geometry" />
        </mxCell>
        <mxCell id="msFj-xzoxHvCmX-C848p-21" value="" style="line;strokeWidth=2;direction=south;html=1;fillStyle=auto;fontFamily=Verdana;fontSize=10;fillColor=#87CEFA;gradientColor=none;fontColor=#000000;" vertex="1" parent="1">
          <mxGeometry x="275" y="601" width="10" height="21" as="geometry" />
        </mxCell>
        <mxCell id="msFj-xzoxHvCmX-C848p-22" value="&lt;div&gt;&lt;font style=&quot;font-size: 10px;&quot;&gt;♀&amp;nbsp; &lt;b&gt;Chietrawatie Hieramanie-debie&lt;br&gt;&lt;/b&gt;&lt;/font&gt;&lt;/div&gt;&lt;div&gt;&lt;font style=&quot;font-size: 10px;&quot; size=&quot;3&quot;&gt;(22/09/1957)&lt;/font&gt;&lt;font size=&quot;3&quot;&gt;&lt;i&gt;&lt;br&gt;&lt;/i&gt;&lt;/font&gt;&lt;/div&gt;" style="rounded=1;whiteSpace=wrap;html=1;fillColor=#FFC0CB;strokeColor=#FF1493;fillStyle=auto;fontFamily=Verdana;fontSize=10;fontColor=#000000;" vertex="1" parent="1">
          <mxGeometry x="239.65" y="561" width="84.69" height="80" as="geometry" />
        </mxCell>
        <mxCell id="msFj-xzoxHvCmX-C848p-23" value="" style="line;strokeWidth=2;direction=south;html=1;fillStyle=auto;fontFamily=Verdana;fontSize=10;fillColor=#87CEFA;gradientColor=none;fontColor=#000000;" vertex="1" parent="1">
          <mxGeometry x="396.21000000000004" y="542" width="10" height="21" as="geometry" />
        </mxCell>
        <mxCell id="msFj-xzoxHvCmX-C848p-24" value="&lt;div&gt;&lt;font style=&quot;font-size: 10px;&quot;&gt;♀&amp;nbsp; &lt;b&gt;Chatranie Debie (Sita)&lt;br&gt;&lt;/b&gt;&lt;/font&gt;&lt;/div&gt;&lt;div&gt;&lt;font style=&quot;font-size: 10px;&quot; size=&quot;3&quot;&gt;(15/04/1959)&lt;/font&gt;&lt;font size=&quot;3&quot;&gt;&lt;i&gt;&lt;br&gt;&lt;/i&gt;&lt;/font&gt;&lt;/div&gt;" style="rounded=1;whiteSpace=wrap;html=1;fillColor=#FFC0CB;strokeColor=#FF1493;fillStyle=auto;fontFamily=Verdana;fontSize=10;fontColor=#000000;" vertex="1" parent="1">
          <mxGeometry x="359.52" y="561" width="84.69" height="80" as="geometry" />
        </mxCell>
        <mxCell id="msFj-xzoxHvCmX-C848p-25" value="" style="line;strokeWidth=2;direction=south;html=1;fillStyle=auto;fontFamily=Verdana;fontSize=10;fillColor=#87CEFA;gradientColor=none;fontColor=#000000;" vertex="1" parent="1">
          <mxGeometry x="515.5" y="540" width="10" height="21" as="geometry" />
        </mxCell>
        <mxCell id="msFj-xzoxHvCmX-C848p-26" value="" style="line;strokeWidth=2;direction=south;html=1;fillStyle=auto;fontFamily=Verdana;fontSize=10;fillColor=#87CEFA;gradientColor=none;fontColor=#000000;" vertex="1" parent="1">
          <mxGeometry x="636.5" y="542" width="10" height="21" as="geometry" />
        </mxCell>
        <mxCell id="msFj-xzoxHvCmX-C848p-27" value="&lt;div&gt;&lt;font style=&quot;font-size: 10px;&quot; face=&quot;Verdana&quot;&gt;♂ &lt;b&gt;Premkoemar&lt;/b&gt;&lt;br&gt;&lt;/font&gt;&lt;/div&gt;&lt;div&gt;&lt;font style=&quot;font-size: 10px;&quot; face=&quot;Verdana&quot;&gt;(24/05/1961&lt;/font&gt;&lt;font style=&quot;font-size: 10px;&quot; face=&quot;Verdana&quot;&gt;)&lt;/font&gt;&lt;/div&gt;" style="rounded=1;whiteSpace=wrap;html=1;fillStyle=auto;strokeColor=#00BFFF;fillColor=#87CEFA;gradientColor=none;fontFamily=Verdana;fontSize=10;fontColor=#000000;" vertex="1" parent="1">
          <mxGeometry x="599" y="561" width="85" height="80" as="geometry" />
        </mxCell>
        <mxCell id="msFj-xzoxHvCmX-C848p-28" value="" style="line;strokeWidth=2;direction=south;html=1;fillStyle=auto;fontFamily=Verdana;fontSize=10;fillColor=#87CEFA;gradientColor=none;fontColor=#000000;" vertex="1" parent="1">
          <mxGeometry x="755.69" y="541" width="10" height="21" as="geometry" />
        </mxCell>
        <mxCell id="msFj-xzoxHvCmX-C848p-30" value="&lt;div&gt;&lt;font style=&quot;font-size: 10px;&quot;&gt;♀&amp;nbsp; &lt;b&gt;Maltidevi&lt;br&gt;&lt;/b&gt;&lt;/font&gt;&lt;/div&gt;&lt;div&gt;&lt;font style=&quot;font-size: 10px;&quot; size=&quot;3&quot;&gt;(07/02/1963)&lt;/font&gt;&lt;font size=&quot;3&quot;&gt;&lt;i&gt;&lt;br&gt;&lt;/i&gt;&lt;/font&gt;&lt;/div&gt;" style="rounded=1;whiteSpace=wrap;html=1;fillColor=#FFC0CB;strokeColor=#FF1493;fillStyle=auto;fontFamily=Verdana;fontSize=10;fontColor=#000000;" vertex="1" parent="1">
          <mxGeometry x="718.3499999999999" y="561" width="84.69" height="80" as="geometry" />
        </mxCell>
        <mxCell id="msFj-xzoxHvCmX-C848p-32" value="" style="line;strokeWidth=2;direction=south;html=1;fillStyle=auto;fontFamily=Verdana;fontSize=10;fillColor=#87CEFA;gradientColor=none;fontColor=#000000;" vertex="1" parent="1">
          <mxGeometry x="876" y="540" width="10" height="21" as="geometry" />
        </mxCell>
        <mxCell id="msFj-xzoxHvCmX-C848p-34" value="" style="line;strokeWidth=2;direction=south;html=1;fillStyle=auto;fontFamily=Verdana;fontSize=10;fillColor=#87CEFA;gradientColor=none;fontColor=#000000;" vertex="1" parent="1">
          <mxGeometry x="995.6899999999999" y="541" width="10" height="21" as="geometry" />
        </mxCell>
        <mxCell id="msFj-xzoxHvCmX-C848p-35" value="" style="line;strokeWidth=2;direction=south;html=1;fillStyle=auto;fontFamily=Verdana;fontSize=10;fillColor=#87CEFA;gradientColor=none;fontColor=#000000;" vertex="1" parent="1">
          <mxGeometry x="1083.8" y="641" width="10" height="39" as="geometry" />
        </mxCell>
        <mxCell id="msFj-xzoxHvCmX-C848p-36" value="&lt;div align=&quot;center&quot;&gt;&lt;br&gt;&lt;/div&gt;" style="shape=umlActor;verticalLabelPosition=bottom;verticalAlign=top;html=1;outlineConnect=0;fillStyle=auto;fontFamily=Verdana;fontSize=10;fontColor=#000000;strokeColor=#00BFFF;strokeWidth=2;fillColor=#87CEFA;gradientColor=none;align=center;" vertex="1" parent="1">
          <mxGeometry x="1088.8" y="673" width="14.69" height="20" as="geometry" />
        </mxCell>
        <mxCell id="msFj-xzoxHvCmX-C848p-37" value="" style="shape=umlActor;verticalLabelPosition=bottom;verticalAlign=top;html=1;outlineConnect=0;fillStyle=auto;fontFamily=Verdana;fontSize=10;fontColor=#000000;strokeColor=#FF1493;strokeWidth=2;fillColor=#FFC0CB;gradientColor=none;" vertex="1" parent="1">
          <mxGeometry x="1104.49" y="673" width="15.01" height="20" as="geometry" />
        </mxCell>
        <mxCell id="msFj-xzoxHvCmX-C848p-39" value="" style="shape=umlActor;verticalLabelPosition=bottom;verticalAlign=top;html=1;outlineConnect=0;fillStyle=auto;fontFamily=Verdana;fontSize=10;fontColor=#000000;strokeColor=#FF1493;strokeWidth=2;fillColor=#FFC0CB;gradientColor=none;" vertex="1" parent="1">
          <mxGeometry x="743.89" y="672.85" width="15.01" height="20" as="geometry" />
        </mxCell>
        <mxCell id="msFj-xzoxHvCmX-C848p-40" value="" style="shape=umlActor;verticalLabelPosition=bottom;verticalAlign=top;html=1;outlineConnect=0;fillStyle=auto;fontFamily=Verdana;fontSize=10;fontColor=#000000;strokeColor=#FF1493;strokeWidth=2;fillColor=#FFC0CB;gradientColor=none;" vertex="1" parent="1">
          <mxGeometry x="727.88" y="673" width="15.01" height="20" as="geometry" />
        </mxCell>
        <mxCell id="msFj-xzoxHvCmX-C848p-41" value="" style="shape=umlActor;verticalLabelPosition=bottom;verticalAlign=top;html=1;outlineConnect=0;fillStyle=auto;fontFamily=Verdana;fontSize=10;fontColor=#000000;strokeColor=#FF1493;strokeWidth=2;fillColor=#FFC0CB;gradientColor=none;" vertex="1" parent="1">
          <mxGeometry x="760" y="672.85" width="15.01" height="20" as="geometry" />
        </mxCell>
        <mxCell id="msFj-xzoxHvCmX-C848p-42" value="&lt;div align=&quot;center&quot;&gt;&lt;br&gt;&lt;/div&gt;" style="shape=umlActor;verticalLabelPosition=bottom;verticalAlign=top;html=1;outlineConnect=0;fillStyle=auto;fontFamily=Verdana;fontSize=10;fontColor=#000000;strokeColor=#00BFFF;strokeWidth=2;fillColor=#87CEFA;gradientColor=none;align=center;" vertex="1" parent="1">
          <mxGeometry x="776.46" y="672.85" width="14.69" height="20" as="geometry" />
        </mxCell>
        <mxCell id="msFj-xzoxHvCmX-C848p-43" value="Priya" style="text;html=1;strokeColor=none;fillColor=none;align=center;verticalAlign=middle;whiteSpace=wrap;rounded=0;fillStyle=auto;fontFamily=Verdana;fontSize=8;fontColor=#000000;rotation=-90;" vertex="1" parent="1">
          <mxGeometry x="729.31" y="701" width="40" height="18" as="geometry" />
        </mxCell>
        <mxCell id="msFj-xzoxHvCmX-C848p-44" value="Ishana" style="text;html=1;strokeColor=none;fillColor=none;align=center;verticalAlign=middle;whiteSpace=wrap;rounded=0;fillStyle=auto;fontFamily=Verdana;fontSize=8;fontColor=#000000;rotation=-90;" vertex="1" parent="1">
          <mxGeometry x="745.89" y="698" width="40" height="18" as="geometry" />
        </mxCell>
        <mxCell id="msFj-xzoxHvCmX-C848p-45" value="Ruchir" style="text;html=1;strokeColor=none;fillColor=none;align=center;verticalAlign=middle;whiteSpace=wrap;rounded=0;fillStyle=auto;fontFamily=Verdana;fontSize=8;fontColor=#000000;rotation=-90;" vertex="1" parent="1">
          <mxGeometry x="761.21" y="699" width="40" height="18" as="geometry" />
        </mxCell>
        <mxCell id="msFj-xzoxHvCmX-C848p-46" value="Aruna" style="text;html=1;strokeColor=none;fillColor=none;align=center;verticalAlign=middle;whiteSpace=wrap;rounded=0;fillStyle=auto;fontFamily=Verdana;fontSize=8;fontColor=#000000;rotation=-90;" vertex="1" parent="1">
          <mxGeometry x="713.38" y="699" width="40" height="18" as="geometry" />
        </mxCell>
        <mxCell id="msFj-xzoxHvCmX-C848p-47" value="Sagar" style="text;html=1;strokeColor=none;fillColor=none;align=center;verticalAlign=middle;whiteSpace=wrap;rounded=0;fillStyle=auto;fontFamily=Verdana;fontSize=8;fontColor=#000000;rotation=-90;" vertex="1" parent="1">
          <mxGeometry x="1075.15" y="699.5" width="40" height="18" as="geometry" />
        </mxCell>
        <mxCell id="msFj-xzoxHvCmX-C848p-49" value="..." style="text;html=1;strokeColor=none;fillColor=none;align=center;verticalAlign=middle;whiteSpace=wrap;rounded=0;fillStyle=auto;fontFamily=Verdana;fontSize=8;fontColor=#000000;rotation=-90;" vertex="1" parent="1">
          <mxGeometry x="1085.99" y="700.5" width="40" height="18" as="geometry" />
        </mxCell>
        <mxCell id="msFj-xzoxHvCmX-C848p-57" value="&lt;div&gt;&lt;font style=&quot;font-size: 10px;&quot; face=&quot;Verdana&quot;&gt;♂ &lt;b&gt;Frits Krishnapersad&lt;/b&gt;&lt;br&gt;&lt;/font&gt;&lt;/div&gt;&lt;div&gt;&lt;font style=&quot;font-size: 10px;&quot; face=&quot;Verdana&quot;&gt;(31/07/1934 - &lt;/font&gt;&lt;font style=&quot;font-size: 10px;&quot; face=&quot;Verdana&quot;&gt;&lt;font style=&quot;font-size: 10px;&quot; size=&quot;3&quot;&gt;&lt;b&gt;† &lt;/b&gt;11/06/2004&lt;/font&gt;)&lt;/font&gt;&lt;/div&gt;" style="rounded=1;whiteSpace=wrap;html=1;fillStyle=auto;strokeColor=#00BFFF;fillColor=#87CEFA;gradientColor=none;fontFamily=Verdana;fontSize=10;fontColor=#000000;" vertex="1" parent="1">
          <mxGeometry x="415.31" y="440" width="85" height="80" as="geometry" />
        </mxCell>
        <mxCell id="msFj-xzoxHvCmX-C848p-58" value="&lt;div&gt;&lt;font style=&quot;font-size: 10px;&quot;&gt;♀&amp;nbsp; &lt;b&gt;Soemintra&lt;/b&gt;&lt;/font&gt;&lt;/div&gt;&lt;div&gt;&lt;font style=&quot;font-size: 10px;&quot;&gt;&lt;b&gt;Sietaram&lt;br&gt;&lt;/b&gt;&lt;/font&gt;&lt;/div&gt;&lt;div&gt;&lt;font style=&quot;font-size: 10px;&quot; size=&quot;3&quot;&gt;(01/03/1938 - &lt;/font&gt;&lt;font style=&quot;font-size: 10px;&quot; size=&quot;3&quot;&gt;&lt;font style=&quot;font-size: 10px;&quot; face=&quot;Verdana&quot;&gt;&lt;font style=&quot;font-size: 10px;&quot; size=&quot;3&quot;&gt;&lt;b&gt;† &lt;/b&gt;&lt;/font&gt;&lt;/font&gt;&lt;/font&gt;&lt;font style=&quot;font-size: 10px;&quot; size=&quot;3&quot;&gt;01/09/2008)&lt;/font&gt;&lt;font size=&quot;3&quot;&gt;&lt;i&gt;&lt;br&gt;&lt;/i&gt;&lt;/font&gt;&lt;/div&gt;" style="rounded=1;whiteSpace=wrap;html=1;fillColor=#FFC0CB;strokeColor=#FF1493;fillStyle=auto;fontFamily=Verdana;fontSize=10;fontColor=#000000;" vertex="1" parent="1">
          <mxGeometry x="666" y="440" width="84.69" height="80" as="geometry" />
        </mxCell>
        <mxCell id="msFj-xzoxHvCmX-C848p-62" value="" style="line;strokeWidth=2;direction=south;html=1;fillStyle=auto;fontFamily=Verdana;fontSize=10;fillColor=#87CEFA;gradientColor=none;fontColor=#000000;" vertex="1" parent="1">
          <mxGeometry x="483.5" y="641" width="10" height="39" as="geometry" />
        </mxCell>
        <mxCell id="msFj-xzoxHvCmX-C848p-63" value="" style="line;strokeWidth=2;direction=south;html=1;fillStyle=auto;fontFamily=Verdana;fontSize=10;fillColor=#87CEFA;gradientColor=none;fontColor=#000000;rotation=90;" vertex="1" parent="1">
          <mxGeometry x="493.44" y="671.25" width="10" height="19.5" as="geometry" />
        </mxCell>
        <mxCell id="msFj-xzoxHvCmX-C848p-66" value="" style="strokeWidth=2;html=1;shape=mxgraph.flowchart.annotation_2;align=left;labelPosition=right;pointerEvents=1;fillStyle=auto;fontFamily=Verdana;fontSize=10;fillColor=#87CEFA;gradientColor=none;rotation=90;" vertex="1" parent="1">
          <mxGeometry x="455.02" y="686" width="66.96" height="19.15" as="geometry" />
        </mxCell>
        <mxCell id="msFj-xzoxHvCmX-C848p-67" value="" style="line;strokeWidth=2;direction=south;html=1;fillStyle=auto;fontFamily=Verdana;fontSize=10;fillColor=#87CEFA;gradientColor=none;fontColor=#000000;" vertex="1" parent="1">
          <mxGeometry x="786.04" y="641" width="10" height="39" as="geometry" />
        </mxCell>
        <mxCell id="msFj-xzoxHvCmX-C848p-68" value="" style="line;strokeWidth=2;direction=south;html=1;fillStyle=auto;fontFamily=Verdana;fontSize=10;fillColor=#87CEFA;gradientColor=none;fontColor=#000000;" vertex="1" parent="1">
          <mxGeometry x="964" y="642" width="10" height="38" as="geometry" />
        </mxCell>
        <mxCell id="msFj-xzoxHvCmX-C848p-69" value="&lt;div align=&quot;center&quot;&gt;&lt;br&gt;&lt;/div&gt;" style="shape=umlActor;verticalLabelPosition=bottom;verticalAlign=top;html=1;outlineConnect=0;fillStyle=auto;fontFamily=Verdana;fontSize=10;fontColor=#000000;strokeColor=#00BFFF;strokeWidth=2;fillColor=#87CEFA;gradientColor=none;align=center;" vertex="1" parent="1">
          <mxGeometry x="985" y="672" width="14.69" height="20" as="geometry" />
        </mxCell>
        <UserObject label="&lt;font color=&quot;#000000&quot;&gt;&lt;span lang=&quot;EN-US&quot;&gt;&lt;span lang=&quot;EN-US&quot;&gt;⚮&lt;/span&gt;&lt;/span&gt;&lt;span lang=&quot;EN-US&quot;&gt;&lt;/span&gt;&lt;/font&gt; &lt;i&gt;&lt;font color=&quot;#00BFFF&quot;&gt;Kathusing&lt;/font&gt;&lt;/i&gt;" placeholders="1" name="Variable" id="msFj-xzoxHvCmX-C848p-72">
          <mxCell style="text;html=1;strokeColor=none;fillColor=none;align=center;verticalAlign=middle;whiteSpace=wrap;overflow=hidden;fillStyle=auto;fontFamily=Verdana;fontSize=10;opacity=50;fontColor=#FF1493;" vertex="1" parent="1">
            <mxGeometry x="724.29" y="641" width="66.21" height="28" as="geometry" />
          </mxCell>
        </UserObject>
        <mxCell id="msFj-xzoxHvCmX-C848p-73" value="" style="line;strokeWidth=2;direction=south;html=1;fillStyle=auto;fontFamily=Verdana;fontSize=10;fillColor=#87CEFA;gradientColor=none;fontColor=#000000;" vertex="1" parent="1">
          <mxGeometry x="906.87" y="641.5" width="10" height="38" as="geometry" />
        </mxCell>
        <UserObject label="&lt;font color=&quot;#000000&quot;&gt;&lt;span lang=&quot;EN-US&quot;&gt;&lt;span lang=&quot;EN-US&quot;&gt;⚮&lt;/span&gt;&lt;/span&gt;&lt;span lang=&quot;EN-US&quot;&gt;&lt;/span&gt;&lt;/font&gt; &lt;i&gt;&lt;font color=&quot;#00BFFF&quot;&gt;de Man&lt;br&gt;&lt;/font&gt;&lt;/i&gt;" placeholders="1" name="Variable" id="msFj-xzoxHvCmX-C848p-74">
          <mxCell style="text;html=1;strokeColor=none;fillColor=none;align=center;verticalAlign=middle;whiteSpace=wrap;overflow=hidden;fillStyle=auto;fontFamily=Verdana;fontSize=10;opacity=50;fontColor=#FF1493;" vertex="1" parent="1">
            <mxGeometry x="845.12" y="641.5" width="66.21" height="28" as="geometry" />
          </mxCell>
        </UserObject>
        <mxCell id="msFj-xzoxHvCmX-C848p-75" value="&lt;div align=&quot;center&quot;&gt;&lt;br&gt;&lt;/div&gt;" style="shape=umlActor;verticalLabelPosition=bottom;verticalAlign=top;html=1;outlineConnect=0;fillStyle=auto;fontFamily=Verdana;fontSize=10;fontColor=#000000;strokeColor=#00BFFF;strokeWidth=2;fillColor=#87CEFA;gradientColor=none;align=center;" vertex="1" parent="1">
          <mxGeometry x="896.64" y="672.85" width="14.69" height="20" as="geometry" />
        </mxCell>
        <mxCell id="msFj-xzoxHvCmX-C848p-78" value="Valentino" style="text;html=1;strokeColor=none;fillColor=none;align=center;verticalAlign=middle;whiteSpace=wrap;rounded=0;fillStyle=auto;fontFamily=Verdana;fontSize=8;fontColor=#000000;rotation=-90;" vertex="1" parent="1">
          <mxGeometry x="954.69" y="701" width="40" height="18" as="geometry" />
        </mxCell>
        <mxCell id="msFj-xzoxHvCmX-C848p-79" value="Jairadj" style="text;html=1;strokeColor=none;fillColor=none;align=center;verticalAlign=middle;whiteSpace=wrap;rounded=0;fillStyle=auto;fontFamily=Verdana;fontSize=8;fontColor=#000000;rotation=-90;" vertex="1" parent="1">
          <mxGeometry x="969.66" y="706" width="40" height="18" as="geometry" />
        </mxCell>
        <mxCell id="msFj-xzoxHvCmX-C848p-80" value="Parveen" style="text;html=1;strokeColor=none;fillColor=none;align=center;verticalAlign=middle;whiteSpace=wrap;rounded=0;fillStyle=auto;fontFamily=Verdana;fontSize=8;fontColor=#000000;rotation=-90;" vertex="1" parent="1">
          <mxGeometry x="865.87" y="700.5" width="40" height="18" as="geometry" />
        </mxCell>
        <mxCell id="msFj-xzoxHvCmX-C848p-81" value="Wesley" style="text;html=1;strokeColor=none;fillColor=none;align=center;verticalAlign=middle;whiteSpace=wrap;rounded=0;fillStyle=auto;fontFamily=Verdana;fontSize=8;fontColor=#000000;rotation=-90;" vertex="1" parent="1">
          <mxGeometry x="882.63" y="702" width="40" height="18" as="geometry" />
        </mxCell>
        <mxCell id="msFj-xzoxHvCmX-C848p-82" value="" style="line;strokeWidth=2;direction=south;html=1;fillStyle=auto;fontFamily=Verdana;fontSize=10;fillColor=#87CEFA;gradientColor=none;fontColor=#000000;" vertex="1" parent="1">
          <mxGeometry x="614.96" y="641" width="10" height="39" as="geometry" />
        </mxCell>
        <UserObject label="&lt;span lang=&quot;EN-US&quot;&gt;&lt;font style=&quot;font-size: 12px;&quot;&gt;&lt;span lang=&quot;EN-US&quot;&gt;⚭&lt;span style=&quot;&quot;&gt;&lt;/span&gt;&lt;/span&gt;&lt;/font&gt; &lt;font color=&quot;#FF1493&quot;&gt;&lt;i&gt;Lala&lt;/i&gt;&lt;/font&gt;&lt;/span&gt;" placeholders="1" name="Variable" id="msFj-xzoxHvCmX-C848p-83">
          <mxCell style="text;html=1;strokeColor=none;fillColor=none;align=center;verticalAlign=middle;whiteSpace=wrap;overflow=hidden;fillStyle=auto;fontFamily=Verdana;fontSize=10;opacity=50;fontColor=#000000;" vertex="1" parent="1">
            <mxGeometry x="591.5" y="640" width="100" height="28" as="geometry" />
          </mxCell>
        </UserObject>
        <mxCell id="msFj-xzoxHvCmX-C848p-84" value="&lt;div align=&quot;center&quot;&gt;&lt;br&gt;&lt;/div&gt;" style="shape=umlActor;verticalLabelPosition=bottom;verticalAlign=top;html=1;outlineConnect=0;fillStyle=auto;fontFamily=Verdana;fontSize=10;fontColor=#000000;strokeColor=#00BFFF;strokeWidth=2;fillColor=#87CEFA;gradientColor=none;align=center;" vertex="1" parent="1">
          <mxGeometry x="619.81" y="673" width="14.69" height="20" as="geometry" />
        </mxCell>
        <mxCell id="msFj-xzoxHvCmX-C848p-85" value="Armando" style="text;html=1;strokeColor=none;fillColor=none;align=center;verticalAlign=middle;whiteSpace=wrap;rounded=0;fillStyle=auto;fontFamily=Verdana;fontSize=8;fontColor=#000000;rotation=-90;" vertex="1" parent="1">
          <mxGeometry x="606.15" y="704" width="40" height="18" as="geometry" />
        </mxCell>
        <UserObject label="&lt;span lang=&quot;EN-US&quot;&gt;⚭ &lt;font color=&quot;#00BFFF&quot;&gt;&lt;i&gt;Jawalapersad&lt;/i&gt;&lt;/font&gt;&lt;/span&gt;&lt;span lang=&quot;EN-US&quot;&gt;&lt;br&gt;&lt;/span&gt;" placeholders="1" name="Variable" id="msFj-xzoxHvCmX-C848p-86">
          <mxCell style="text;html=1;strokeColor=none;fillColor=none;align=center;verticalAlign=middle;whiteSpace=wrap;overflow=hidden;fillStyle=auto;fontFamily=Verdana;fontSize=10;opacity=50;fontColor=#000000;" vertex="1" parent="1">
            <mxGeometry x="213.32" y="644.85" width="99.68" height="18.3" as="geometry" />
          </mxCell>
        </UserObject>
        <mxCell id="msFj-xzoxHvCmX-C848p-87" value="" style="line;strokeWidth=2;direction=south;html=1;fillStyle=auto;fontFamily=Verdana;fontSize=10;fillColor=#87CEFA;gradientColor=none;fontColor=#000000;" vertex="1" parent="1">
          <mxGeometry x="305.00000000000006" y="641" width="10" height="39" as="geometry" />
        </mxCell>
        <mxCell id="msFj-xzoxHvCmX-C848p-89" value="" style="line;strokeWidth=2;direction=south;html=1;fillStyle=auto;fontFamily=Verdana;fontSize=10;fillColor=#87CEFA;gradientColor=none;fontColor=#000000;" vertex="1" parent="1">
          <mxGeometry x="184.00000000000006" y="641" width="10" height="39" as="geometry" />
        </mxCell>
        <mxCell id="msFj-xzoxHvCmX-C848p-90" value="" style="line;strokeWidth=2;direction=south;html=1;fillStyle=auto;fontFamily=Verdana;fontSize=10;fillColor=#87CEFA;gradientColor=none;fontColor=#000000;" vertex="1" parent="1">
          <mxGeometry x="3.0100000000000477" y="641" width="10" height="39" as="geometry" />
        </mxCell>
        <mxCell id="msFj-xzoxHvCmX-C848p-91" value="&lt;div&gt;&lt;font style=&quot;font-size: 10px;&quot;&gt;♀ &lt;b&gt;Tanuja Kaadjal&lt;br&gt;&lt;/b&gt;&lt;/font&gt;&lt;/div&gt;&lt;div&gt;&lt;font style=&quot;font-size: 10px;&quot; size=&quot;3&quot;&gt;(20/09/1985)&lt;/font&gt;&lt;font size=&quot;3&quot;&gt;&lt;i&gt;&lt;br&gt;&lt;/i&gt;&lt;/font&gt;&lt;/div&gt;" style="rounded=1;whiteSpace=wrap;html=1;fillColor=#FFC0CB;strokeColor=#FF1493;fillStyle=auto;fontFamily=Verdana;fontSize=10;fontColor=#000000;" vertex="1" parent="1">
          <mxGeometry x="405.21" y="729" width="84.69" height="80" as="geometry" />
        </mxCell>
        <mxCell id="msFj-xzoxHvCmX-C848p-8" value="&lt;div&gt;&lt;font style=&quot;font-size: 10px;&quot; face=&quot;Verdana&quot;&gt;♂ &lt;b&gt;Satish Jitendra&lt;/b&gt;&lt;br&gt;&lt;/font&gt;&lt;/div&gt;&lt;div&gt;&lt;font style=&quot;font-size: 10px;&quot; face=&quot;Verdana&quot;&gt;(27/07/1969&lt;/font&gt;&lt;font style=&quot;font-size: 10px;&quot; face=&quot;Verdana&quot;&gt;)&lt;/font&gt;&lt;/div&gt;" style="rounded=1;whiteSpace=wrap;html=1;fillStyle=auto;strokeColor=#00BFFF;fillColor=#87CEFA;gradientColor=none;fontFamily=Verdana;fontSize=10;fontColor=#000000;" vertex="1" parent="1">
          <mxGeometry x="1075.69" y="562" width="85" height="80" as="geometry" />
        </mxCell>
        <mxCell id="msFj-xzoxHvCmX-C848p-31" value="&lt;div&gt;&lt;font style=&quot;font-size: 10px;&quot;&gt;♀&amp;nbsp; &lt;b&gt;Sharmila Manorma&lt;br&gt;&lt;/b&gt;&lt;/font&gt;&lt;/div&gt;&lt;div&gt;&lt;font style=&quot;font-size: 10px;&quot; size=&quot;3&quot;&gt;(09/02/1965)&lt;/font&gt;&lt;font size=&quot;3&quot;&gt;&lt;i&gt;&lt;br&gt;&lt;/i&gt;&lt;/font&gt;&lt;/div&gt;" style="rounded=1;whiteSpace=wrap;html=1;fillColor=#FFC0CB;strokeColor=#FF1493;fillStyle=auto;fontFamily=Verdana;fontSize=10;fontColor=#000000;" vertex="1" parent="1">
          <mxGeometry x="838.65" y="561" width="84.69" height="80" as="geometry" />
        </mxCell>
        <mxCell id="msFj-xzoxHvCmX-C848p-33" value="&lt;div&gt;&lt;font style=&quot;font-size: 10px;&quot; face=&quot;Verdana&quot;&gt;♂ &lt;b&gt;Radjesh Anil&lt;/b&gt; &lt;br&gt;&lt;/font&gt;&lt;/div&gt;&lt;div&gt;&lt;font style=&quot;font-size: 10px;&quot; face=&quot;Verdana&quot;&gt;(16/02/1966&lt;/font&gt;&lt;font style=&quot;font-size: 10px;&quot; face=&quot;Verdana&quot;&gt;)&lt;/font&gt;&lt;/div&gt;" style="rounded=1;whiteSpace=wrap;html=1;fillStyle=auto;strokeColor=#00BFFF;fillColor=#87CEFA;gradientColor=none;fontFamily=Verdana;fontSize=10;fontColor=#000000;" vertex="1" parent="1">
          <mxGeometry x="958.19" y="562" width="85" height="80" as="geometry" />
        </mxCell>
        <mxCell id="msFj-xzoxHvCmX-C848p-92" value="&lt;div&gt;&lt;font style=&quot;font-size: 10px;&quot; face=&quot;Verdana&quot;&gt;♂ &lt;b&gt;Jasodanand Panday&lt;/b&gt;&lt;br&gt;&lt;/font&gt;&lt;/div&gt;&lt;div&gt;&lt;font style=&quot;font-size: 10px;&quot; face=&quot;Verdana&quot;&gt;(27/08/1955&lt;/font&gt;&lt;font style=&quot;font-size: 10px;&quot; face=&quot;Verdana&quot;&gt;)&lt;/font&gt;&lt;/div&gt;" style="rounded=1;whiteSpace=wrap;html=1;fillStyle=auto;strokeColor=#00BFFF;fillColor=#87CEFA;gradientColor=none;fontFamily=Verdana;fontSize=10;fontColor=#000000;" vertex="1" parent="1">
          <mxGeometry x="0.9999999999999911" y="561" width="85" height="80" as="geometry" />
        </mxCell>
        <mxCell id="msFj-xzoxHvCmX-C848p-93" value="&lt;div&gt;&lt;font style=&quot;font-size: 10px;&quot;&gt;♀&amp;nbsp; &lt;b&gt;Emmy Sabitrie&lt;br&gt;&lt;/b&gt;&lt;/font&gt;&lt;/div&gt;&lt;div&gt;&lt;font style=&quot;font-size: 10px;&quot; size=&quot;3&quot;&gt;(29/09/1956)&lt;/font&gt;&lt;font size=&quot;3&quot;&gt;&lt;i&gt;&lt;br&gt;&lt;/i&gt;&lt;/font&gt;&lt;/div&gt;" style="rounded=1;whiteSpace=wrap;html=1;fillColor=#FFC0CB;strokeColor=#FF1493;fillStyle=auto;fontFamily=Verdana;fontSize=10;fontColor=#000000;" vertex="1" parent="1">
          <mxGeometry x="118.65999999999994" y="562" width="84.69" height="80" as="geometry" />
        </mxCell>
        <mxCell id="msFj-xzoxHvCmX-C848p-94" value="&lt;div&gt;&lt;font style=&quot;font-size: 10px;&quot;&gt;♀&amp;nbsp; &lt;b&gt;Chietrawatie Hieramanie-debie&lt;br&gt;&lt;/b&gt;&lt;/font&gt;&lt;/div&gt;&lt;div&gt;&lt;font style=&quot;font-size: 10px;&quot; size=&quot;3&quot;&gt;(22/09/1957)&lt;/font&gt;&lt;font size=&quot;3&quot;&gt;&lt;i&gt;&lt;br&gt;&lt;/i&gt;&lt;/font&gt;&lt;/div&gt;" style="rounded=1;whiteSpace=wrap;html=1;fillColor=#FFC0CB;strokeColor=#FF1493;fillStyle=auto;fontFamily=Verdana;fontSize=10;fontColor=#000000;" vertex="1" parent="1">
          <mxGeometry x="239.65" y="562" width="84.69" height="80" as="geometry" />
        </mxCell>
        <mxCell id="msFj-xzoxHvCmX-C848p-95" value="&lt;div&gt;&lt;font style=&quot;font-size: 10px;&quot;&gt;♀&amp;nbsp; &lt;b&gt;Chatranie Debie (Sita)&lt;br&gt;&lt;/b&gt;&lt;/font&gt;&lt;/div&gt;&lt;div&gt;&lt;font style=&quot;font-size: 10px;&quot; size=&quot;3&quot;&gt;(15/04/1959)&lt;/font&gt;&lt;font size=&quot;3&quot;&gt;&lt;i&gt;&lt;br&gt;&lt;/i&gt;&lt;/font&gt;&lt;/div&gt;" style="rounded=1;whiteSpace=wrap;html=1;fillColor=#FFC0CB;strokeColor=#FF1493;fillStyle=auto;fontFamily=Verdana;fontSize=10;fontColor=#000000;" vertex="1" parent="1">
          <mxGeometry x="359.52" y="562" width="84.69" height="80" as="geometry" />
        </mxCell>
        <mxCell id="msFj-xzoxHvCmX-C848p-96" value="&lt;div&gt;&lt;font style=&quot;font-size: 10px;&quot; face=&quot;Verdana&quot;&gt;♂ &lt;b&gt;Bhagwan-persad Ramsaransing&lt;/b&gt;&lt;br&gt;&lt;/font&gt;&lt;/div&gt;&lt;div&gt;&lt;font style=&quot;font-size: 10px;&quot; face=&quot;Verdana&quot;&gt;(20/03/1960 -&amp;nbsp; &lt;/font&gt;&lt;font style=&quot;font-size: 10px;&quot; face=&quot;Verdana&quot;&gt;&lt;font style=&quot;font-size: 10px;&quot; size=&quot;3&quot;&gt;&lt;b&gt;†&lt;/b&gt;24/10/2008&lt;/font&gt;)&lt;/font&gt;&lt;/div&gt;" style="rounded=1;whiteSpace=wrap;html=1;fillStyle=auto;strokeColor=#00BFFF;fillColor=#87CEFA;gradientColor=none;fontFamily=Verdana;fontSize=10;fontColor=#000000;" vertex="1" parent="1">
          <mxGeometry x="478" y="562" width="85" height="80" as="geometry" />
        </mxCell>
        <mxCell id="msFj-xzoxHvCmX-C848p-97" value="&lt;div&gt;&lt;font style=&quot;font-size: 10px;&quot; face=&quot;Verdana&quot;&gt;♂ &lt;b&gt;Premkoemar&lt;/b&gt;&lt;br&gt;&lt;/font&gt;&lt;/div&gt;&lt;div&gt;&lt;font style=&quot;font-size: 10px;&quot; face=&quot;Verdana&quot;&gt;(24/05/1961&lt;/font&gt;&lt;font style=&quot;font-size: 10px;&quot; face=&quot;Verdana&quot;&gt;)&lt;/font&gt;&lt;/div&gt;" style="rounded=1;whiteSpace=wrap;html=1;fillStyle=auto;strokeColor=#00BFFF;fillColor=#87CEFA;gradientColor=none;fontFamily=Verdana;fontSize=10;fontColor=#000000;" vertex="1" parent="1">
          <mxGeometry x="599" y="562" width="85" height="80" as="geometry" />
        </mxCell>
        <mxCell id="msFj-xzoxHvCmX-C848p-98" value="&lt;div align=&quot;center&quot;&gt;&lt;br&gt;&lt;/div&gt;" style="shape=umlActor;verticalLabelPosition=bottom;verticalAlign=top;html=1;outlineConnect=0;fillStyle=auto;fontFamily=Verdana;fontSize=10;fontColor=#000000;strokeColor=#00BFFF;strokeWidth=2;fillColor=#87CEFA;gradientColor=none;align=center;" vertex="1" parent="1">
          <mxGeometry x="294.31" y="672.5" width="14.69" height="20" as="geometry" />
        </mxCell>
        <mxCell id="msFj-xzoxHvCmX-C848p-99" value="&lt;div align=&quot;center&quot;&gt;&lt;br&gt;&lt;/div&gt;" style="shape=umlActor;verticalLabelPosition=bottom;verticalAlign=top;html=1;outlineConnect=0;fillStyle=auto;fontFamily=Verdana;fontSize=10;fontColor=#000000;strokeColor=#00BFFF;strokeWidth=2;fillColor=#87CEFA;gradientColor=none;align=center;" vertex="1" parent="1">
          <mxGeometry x="278.31" y="673" width="14.69" height="20" as="geometry" />
        </mxCell>
        <UserObject label="&lt;span lang=&quot;EN-US&quot;&gt;⚭ &lt;font color=&quot;#00BFFF&quot;&gt;&lt;i&gt;Doebar&lt;/i&gt;&lt;/font&gt;&lt;/span&gt;&lt;span lang=&quot;EN-US&quot;&gt;&lt;br&gt;&lt;/span&gt;" placeholders="1" name="Variable" id="msFj-xzoxHvCmX-C848p-100">
          <mxCell style="text;html=1;strokeColor=none;fillColor=none;align=center;verticalAlign=middle;whiteSpace=wrap;overflow=hidden;fillStyle=auto;fontFamily=Verdana;fontSize=10;opacity=50;fontColor=#000000;" vertex="1" parent="1">
            <mxGeometry x="115.32" y="644.85" width="89.68" height="18.3" as="geometry" />
          </mxCell>
        </UserObject>
        <mxCell id="msFj-xzoxHvCmX-C848p-101" value="&lt;div align=&quot;center&quot;&gt;&lt;br&gt;&lt;/div&gt;" style="shape=umlActor;verticalLabelPosition=bottom;verticalAlign=top;html=1;outlineConnect=0;fillStyle=auto;fontFamily=Verdana;fontSize=10;fontColor=#000000;strokeColor=#00BFFF;strokeWidth=2;fillColor=#87CEFA;gradientColor=none;align=center;" vertex="1" parent="1">
          <mxGeometry x="156.31" y="672.5" width="14.69" height="20" as="geometry" />
        </mxCell>
        <mxCell id="msFj-xzoxHvCmX-C848p-102" value="" style="shape=umlActor;verticalLabelPosition=bottom;verticalAlign=top;html=1;outlineConnect=0;fillStyle=auto;fontFamily=Verdana;fontSize=10;fontColor=#000000;strokeColor=#FF1493;strokeWidth=2;fillColor=#FFC0CB;gradientColor=none;" vertex="1" parent="1">
          <mxGeometry x="171.99" y="672.85" width="15.01" height="20" as="geometry" />
        </mxCell>
        <UserObject label="&lt;span lang=&quot;EN-US&quot;&gt;&lt;font style=&quot;font-size: 12px;&quot;&gt;&lt;span lang=&quot;EN-US&quot;&gt;⚭&lt;span style=&quot;&quot;&gt;&lt;/span&gt;&lt;/span&gt;&lt;/font&gt; &lt;font color=&quot;#FF1493&quot;&gt;&lt;i&gt;Soechitram&lt;/i&gt;&lt;/font&gt;&lt;/span&gt;" placeholders="1" name="Variable" id="msFj-xzoxHvCmX-C848p-103">
          <mxCell style="text;html=1;strokeColor=none;fillColor=none;align=center;verticalAlign=middle;whiteSpace=wrap;overflow=hidden;fillStyle=auto;fontFamily=Verdana;fontSize=10;opacity=50;fontColor=#000000;" vertex="1" parent="1">
            <mxGeometry y="640" width="100" height="28" as="geometry" />
          </mxCell>
        </UserObject>
        <mxCell id="msFj-xzoxHvCmX-C848p-104" value="" style="shape=umlActor;verticalLabelPosition=bottom;verticalAlign=top;html=1;outlineConnect=0;fillStyle=auto;fontFamily=Verdana;fontSize=10;fontColor=#000000;strokeColor=#FF1493;strokeWidth=2;fillColor=#FFC0CB;gradientColor=none;" vertex="1" parent="1">
          <mxGeometry x="9.010000000000005" y="673" width="15.01" height="20" as="geometry" />
        </mxCell>
        <mxCell id="msFj-xzoxHvCmX-C848p-105" value="&lt;div align=&quot;center&quot;&gt;&lt;br&gt;&lt;/div&gt;" style="shape=umlActor;verticalLabelPosition=bottom;verticalAlign=top;html=1;outlineConnect=0;fillStyle=auto;fontFamily=Verdana;fontSize=10;fontColor=#000000;strokeColor=#00BFFF;strokeWidth=2;fillColor=#87CEFA;gradientColor=none;align=center;" vertex="1" parent="1">
          <mxGeometry x="25.310000000000002" y="673" width="14.69" height="20" as="geometry" />
        </mxCell>
        <mxCell id="msFj-xzoxHvCmX-C848p-106" value="&lt;div align=&quot;center&quot;&gt;&lt;br&gt;&lt;/div&gt;" style="shape=umlActor;verticalLabelPosition=bottom;verticalAlign=top;html=1;outlineConnect=0;fillStyle=auto;fontFamily=Verdana;fontSize=10;fontColor=#000000;strokeColor=#00BFFF;strokeWidth=2;fillColor=#87CEFA;gradientColor=none;align=center;" vertex="1" parent="1">
          <mxGeometry x="41" y="673" width="14.69" height="20" as="geometry" />
        </mxCell>
        <mxCell id="msFj-xzoxHvCmX-C848p-107" value="Aartie" style="text;html=1;strokeColor=none;fillColor=none;align=center;verticalAlign=middle;whiteSpace=wrap;rounded=0;fillStyle=auto;fontFamily=Verdana;fontSize=8;fontColor=#000000;rotation=-90;" vertex="1" parent="1">
          <mxGeometry x="-3.480000000000004" y="705.15" width="40" height="18" as="geometry" />
        </mxCell>
        <mxCell id="msFj-xzoxHvCmX-C848p-108" value="Krishan" style="text;html=1;strokeColor=none;fillColor=none;align=center;verticalAlign=middle;whiteSpace=wrap;rounded=0;fillStyle=auto;fontFamily=Verdana;fontSize=8;fontColor=#000000;rotation=-90;" vertex="1" parent="1">
          <mxGeometry x="12.659999999999997" y="704" width="40" height="18" as="geometry" />
        </mxCell>
        <mxCell id="msFj-xzoxHvCmX-C848p-109" value="Arjun" style="text;html=1;strokeColor=none;fillColor=none;align=center;verticalAlign=middle;whiteSpace=wrap;rounded=0;fillStyle=auto;fontFamily=Verdana;fontSize=8;fontColor=#000000;rotation=-90;" vertex="1" parent="1">
          <mxGeometry x="28.34" y="704" width="40" height="18" as="geometry" />
        </mxCell>
        <mxCell id="msFj-xzoxHvCmX-C848p-111" value="" style="strokeWidth=2;html=1;shape=mxgraph.flowchart.annotation_2;align=left;labelPosition=right;pointerEvents=1;fillStyle=auto;fontFamily=Verdana;fontSize=10;fillColor=#87CEFA;gradientColor=none;rotation=-90;" vertex="1" parent="1">
          <mxGeometry x="444.21000000000004" y="350" width="19.52" height="160" as="geometry" />
        </mxCell>
        <mxCell id="msFj-xzoxHvCmX-C848p-113" value="" style="strokeWidth=2;html=1;shape=mxgraph.flowchart.annotation_2;align=left;labelPosition=right;pointerEvents=1;fillStyle=auto;fontFamily=Verdana;fontSize=10;fillColor=#87CEFA;gradientColor=none;rotation=-90;" vertex="1" parent="1">
          <mxGeometry x="710.7900000000001" y="350" width="19.52" height="160" as="geometry" />
        </mxCell>
        <mxCell id="msFj-xzoxHvCmX-C848p-114" value="&lt;div&gt;&lt;font style=&quot;font-size: 10px;&quot; face=&quot;Verdana&quot;&gt;♂ &lt;b&gt;Ramsoemeer&lt;/b&gt;&lt;/font&gt;&lt;/div&gt;&lt;div&gt;&lt;font style=&quot;font-size: 10px;&quot; face=&quot;Verdana&quot;&gt;&lt;b&gt;Sietaram&lt;/b&gt;&lt;br&gt;&lt;/font&gt;&lt;/div&gt;&lt;div&gt;&lt;font style=&quot;font-size: 10px;&quot; face=&quot;Verdana&quot;&gt;(1904 - &lt;/font&gt;&lt;font style=&quot;font-size: 10px;&quot; face=&quot;Verdana&quot;&gt;&lt;font style=&quot;font-size: 10px;&quot; size=&quot;3&quot;&gt;&lt;b&gt;† &lt;/b&gt;1968&lt;/font&gt;)&lt;/font&gt;&lt;/div&gt;" style="rounded=1;whiteSpace=wrap;html=1;fillStyle=auto;strokeColor=#00BFFF;fillColor=#87CEFA;gradientColor=none;fontFamily=Verdana;fontSize=10;fontColor=#000000;" vertex="1" parent="1">
          <mxGeometry x="599" y="340" width="85" height="80" as="geometry" />
        </mxCell>
        <mxCell id="msFj-xzoxHvCmX-C848p-115" value="&lt;div&gt;&lt;font style=&quot;font-size: 10px;&quot;&gt;♀&amp;nbsp; &lt;b&gt;Parbatie&lt;/b&gt;&lt;/font&gt;&lt;/div&gt;&lt;div&gt;&lt;font style=&quot;font-size: 10px;&quot;&gt;&lt;b&gt;Joeloemsing&lt;br&gt;&lt;/b&gt;&lt;/font&gt;&lt;/div&gt;&lt;div&gt;&lt;font style=&quot;font-size: 10px;&quot; size=&quot;3&quot;&gt;(18/09/1908 - &lt;/font&gt;&lt;font style=&quot;font-size: 10px;&quot; size=&quot;3&quot;&gt;&lt;font style=&quot;font-size: 10px;&quot; face=&quot;Verdana&quot;&gt;&lt;font style=&quot;font-size: 10px;&quot; size=&quot;3&quot;&gt;&lt;b&gt;† ??&lt;/b&gt;&lt;/font&gt;&lt;/font&gt;)&lt;/font&gt;&lt;font size=&quot;3&quot;&gt;&lt;i&gt;&lt;br&gt;&lt;/i&gt;&lt;/font&gt;&lt;/div&gt;" style="rounded=1;whiteSpace=wrap;html=1;fillColor=#FFC0CB;strokeColor=#FF1493;fillStyle=auto;fontFamily=Verdana;fontSize=10;fontColor=#000000;" vertex="1" parent="1">
          <mxGeometry x="755.69" y="340" width="84.69" height="80" as="geometry" />
        </mxCell>
        <mxCell id="msFj-xzoxHvCmX-C848p-116" value="" style="line;strokeWidth=2;direction=south;html=1;fillStyle=auto;fontFamily=Verdana;fontSize=10;fillColor=#87CEFA;gradientColor=none;fontColor=#000000;" vertex="1" parent="1">
          <mxGeometry x="634.5" y="319" width="10" height="21" as="geometry" />
        </mxCell>
        <mxCell id="msFj-xzoxHvCmX-C848p-118" value="" style="strokeWidth=2;html=1;shape=mxgraph.flowchart.annotation_2;align=left;labelPosition=right;pointerEvents=1;fillStyle=auto;fontFamily=Verdana;fontSize=10;fillColor=#87CEFA;gradientColor=none;rotation=-90;" vertex="1" parent="1">
          <mxGeometry x="790.5000000000001" y="249.5" width="19.52" height="160" as="geometry" />
        </mxCell>
        <mxCell id="msFj-xzoxHvCmX-C848p-119" value="&lt;div&gt;&lt;font style=&quot;font-size: 10px;&quot;&gt;♀&amp;nbsp; &lt;b&gt;Lachminia&lt;/b&gt;&lt;/font&gt;&lt;/div&gt;&lt;div&gt;&lt;font style=&quot;font-size: 10px;&quot;&gt;&lt;b&gt;Mahabier&lt;br&gt;&lt;/b&gt;&lt;/font&gt;&lt;/div&gt;&lt;div&gt;&lt;font style=&quot;font-size: 10px;&quot; size=&quot;3&quot;&gt;( - &lt;/font&gt;&lt;font style=&quot;font-size: 10px;&quot; size=&quot;3&quot;&gt;&lt;font style=&quot;font-size: 10px;&quot; face=&quot;Verdana&quot;&gt;&lt;font style=&quot;font-size: 10px;&quot; size=&quot;3&quot;&gt;&lt;b&gt;† &lt;/b&gt;1998&lt;/font&gt;&lt;/font&gt;)&lt;/font&gt;&lt;font size=&quot;3&quot;&gt;&lt;i&gt;&lt;br&gt;&lt;/i&gt;&lt;/font&gt;&lt;/div&gt;" style="rounded=1;whiteSpace=wrap;html=1;fillColor=#FFC0CB;strokeColor=#FF1493;fillStyle=auto;fontFamily=Verdana;fontSize=10;fontColor=#000000;" vertex="1" parent="1">
          <mxGeometry x="489.9" y="340" width="84.69" height="80" as="geometry" />
        </mxCell>
        <mxCell id="msFj-xzoxHvCmX-C848p-120" value="&lt;div&gt;&lt;font style=&quot;font-size: 10px;&quot; face=&quot;Verdana&quot;&gt;♂ &lt;b&gt;Sardjoepersad Ramsaran Panday&lt;/b&gt;&lt;br&gt;&lt;/font&gt;&lt;/div&gt;&lt;div&gt;&lt;font style=&quot;font-size: 10px;&quot; face=&quot;Verdana&quot;&gt;(1896 - &lt;/font&gt;&lt;font style=&quot;font-size: 10px;&quot; face=&quot;Verdana&quot;&gt;&lt;font style=&quot;font-size: 10px;&quot; size=&quot;3&quot;&gt;&lt;b&gt;†&lt;/b&gt; 1981&lt;/font&gt;)&lt;/font&gt;&lt;/div&gt;" style="rounded=1;whiteSpace=wrap;html=1;fillStyle=auto;strokeColor=#00BFFF;fillColor=#87CEFA;gradientColor=none;fontFamily=Verdana;fontSize=10;fontColor=#000000;" vertex="1" parent="1">
          <mxGeometry x="330.31" y="340" width="85" height="80" as="geometry" />
        </mxCell>
        <UserObject label="&lt;span lang=&quot;EN-US&quot;&gt;⚭ ?? &lt;/span&gt;&lt;span lang=&quot;EN-US&quot;&gt;➝ achternaam &lt;b&gt;&lt;i&gt;Ramsaransing sing&lt;/i&gt;&lt;/b&gt;&lt;br&gt;&lt;/span&gt;" placeholders="1" name="Variable" id="msFj-xzoxHvCmX-C848p-121">
          <mxCell style="text;html=1;strokeColor=none;fillColor=none;align=center;verticalAlign=middle;whiteSpace=wrap;overflow=hidden;fillStyle=auto;fontFamily=Verdana;fontSize=10;rotation=-90;" vertex="1" parent="1">
            <mxGeometry x="386.37000000000006" y="340" width="135.21" height="40" as="geometry" />
          </mxCell>
        </UserObject>
        <mxCell id="msFj-xzoxHvCmX-C848p-122" value="" style="strokeWidth=2;html=1;shape=mxgraph.flowchart.annotation_2;align=left;labelPosition=right;pointerEvents=1;fillStyle=auto;fontFamily=Verdana;fontSize=10;fillColor=#87CEFA;gradientColor=none;rotation=-90;" vertex="1" parent="1">
          <mxGeometry x="261" y="365" width="19.52" height="130" as="geometry" />
        </mxCell>
        <mxCell id="msFj-xzoxHvCmX-C848p-123" value="&lt;div&gt;&lt;font style=&quot;font-size: 10px;&quot; face=&quot;Verdana&quot;&gt;♂ &lt;b&gt;Julim &lt;br&gt;&lt;/b&gt;&lt;/font&gt;&lt;/div&gt;&lt;div&gt;&lt;font style=&quot;font-size: 10px;&quot; face=&quot;Verdana&quot;&gt;&lt;b&gt;Sing&lt;/b&gt;&lt;br&gt;&lt;/font&gt;&lt;/div&gt;&lt;div&gt;&lt;font style=&quot;font-size: 10px;&quot; face=&quot;Verdana&quot;&gt;( -&amp;nbsp; &lt;/font&gt;&lt;font style=&quot;font-size: 10px;&quot; face=&quot;Verdana&quot;&gt;&lt;font style=&quot;font-size: 10px;&quot; size=&quot;3&quot;&gt;&lt;b&gt;†&lt;/b&gt;&lt;/font&gt;)&lt;/font&gt;&lt;/div&gt;&lt;div&gt;&lt;i&gt;524/N&lt;/i&gt;&lt;br&gt;&lt;/div&gt;" style="rounded=1;whiteSpace=wrap;html=1;fillStyle=auto;strokeColor=#00BFFF;fillColor=#87CEFA;gradientColor=none;fontFamily=Verdana;fontSize=10;fontColor=#000000;" vertex="1" parent="1">
          <mxGeometry x="676.21" y="239" width="85" height="80" as="geometry" />
        </mxCell>
        <mxCell id="msFj-xzoxHvCmX-C848p-124" value="&lt;div&gt;&lt;font style=&quot;font-size: 10px;&quot;&gt;♀&amp;nbsp; &lt;b&gt;Moneea&lt;br&gt;&lt;/b&gt;&lt;/font&gt;&lt;/div&gt;&lt;div&gt;&lt;font style=&quot;font-size: 10px;&quot;&gt;()&lt;/font&gt;&lt;/div&gt;&lt;div&gt;&lt;font style=&quot;font-size: 10px;&quot;&gt;&lt;i&gt;F/299&lt;/i&gt;&lt;i&gt;&lt;br&gt;&lt;/i&gt;&lt;/font&gt;&lt;/div&gt;" style="rounded=1;whiteSpace=wrap;html=1;fillColor=#FFC0CB;strokeColor=#FF1493;fillStyle=auto;fontFamily=Verdana;fontSize=10;fontColor=#000000;" vertex="1" parent="1">
          <mxGeometry x="832.1800000000001" y="239" width="84.69" height="80" as="geometry" />
        </mxCell>
        <mxCell id="msFj-xzoxHvCmX-C848p-126" value="" style="line;strokeWidth=2;html=1;fontSize=10;" vertex="1" parent="1">
          <mxGeometry x="801.21" y="425" width="78.79" height="10" as="geometry" />
        </mxCell>
        <mxCell id="msFj-xzoxHvCmX-C848p-127" value="&lt;div align=&quot;center&quot;&gt;&lt;br&gt;&lt;/div&gt;" style="shape=umlActor;verticalLabelPosition=bottom;verticalAlign=top;html=1;outlineConnect=0;fillStyle=auto;fontFamily=Verdana;fontSize=10;fontColor=#000000;strokeColor=#00BFFF;strokeWidth=2;fillColor=#87CEFA;gradientColor=none;align=center;" vertex="1" parent="1">
          <mxGeometry x="880" y="435" width="14.69" height="20" as="geometry" />
        </mxCell>
        <mxCell id="msFj-xzoxHvCmX-C848p-128" value="&lt;div align=&quot;center&quot;&gt;&lt;br&gt;&lt;/div&gt;" style="shape=umlActor;verticalLabelPosition=bottom;verticalAlign=top;html=1;outlineConnect=0;fillStyle=auto;fontFamily=Verdana;fontSize=10;fontColor=#000000;strokeColor=#00BFFF;strokeWidth=2;fillColor=#87CEFA;gradientColor=none;align=center;" vertex="1" parent="1">
          <mxGeometry x="895.64" y="435" width="14.69" height="20" as="geometry" />
        </mxCell>
        <mxCell id="msFj-xzoxHvCmX-C848p-129" value="" style="shape=umlActor;verticalLabelPosition=bottom;verticalAlign=top;html=1;outlineConnect=0;fillStyle=auto;fontFamily=Verdana;fontSize=10;fontColor=#000000;strokeColor=#FF1493;strokeWidth=2;fillColor=#FFC0CB;gradientColor=none;" vertex="1" parent="1">
          <mxGeometry x="911.33" y="435" width="15.01" height="20" as="geometry" />
        </mxCell>
        <mxCell id="msFj-xzoxHvCmX-C848p-130" value="&lt;font style=&quot;font-size: 12px;&quot;&gt;&lt;font style=&quot;font-size: 12px;&quot;&gt;&lt;span lang=&quot;EN-US&quot;&gt;&lt;span lang=&quot;EN-US&quot;&gt;⚮&lt;/span&gt;&lt;/span&gt;&lt;/font&gt;&lt;/font&gt;" style="text;html=1;strokeColor=none;fillColor=none;align=center;verticalAlign=middle;whiteSpace=wrap;rounded=0;fontSize=10;" vertex="1" parent="1">
          <mxGeometry x="239.64999999999998" y="405" width="60" height="30" as="geometry" />
        </mxCell>
      </root>
    </mxGraphModel>
  </diagram>
</mxfile>
